# AST/ASF file generated using VICON BodyLanguage
# -----------------------------------------------
:version 1.10
:name VICON
:units
  mass 1.0
  length 0.45
  angle deg
:documentation
   .ast/.asf automatically generated from VICON data using
   VICON BodyBuilder and BodyLanguage model FoxedUp or BRILLIANT.MOD
:root
   order TX TY TZ RX RY RZ
   axis XYZ
   position 0 0 0  
   orientation 0 0 0 
:bonedata
  begin
     id 1 
     name lhipjoint
     direction 0.62366 -0.717238 0.310833 
     length 2.53602 
     axis 0 0 0  XYZ
  end
  begin
     id 2 
     name lfemur
     direction 0.34202 -0.939693 0  
     length 7.40817  
     axis 0 0 20  XYZ
    dof rx ry rz
    limits (-160.0 20.0)
           (-70.0 70.0)
           (-60.0 70.0)
  end
  begin
     id 3 
     name ltibia
     direction 0.34202 -0.939693 0   
     length 7.7045   
     axis 0 0 20   XYZ
    dof rx
    limits (-10.0 170.0)
  end
  begin
     id 4 
     name lfoot
     direction 0.0673888 -0.185149 0.980397   
     length 2.09456   
     axis -90 7.62852e-016 20   XYZ
    dof rx rz
    limits (-45.0 90.0)
           (-70.0 20.0)
  end
  begin
     id 5 
     name ltoes
     direction 1.53575e-011 -4.21994e-011 1   
     length 1.05543   
     axis -90 7.62852e-016 20   XYZ
    dof rx
    limits (-90.0 20.0)
  end
  begin
     id 6 
     name rhipjoint
     direction -0.489018 -0.800347 0.346851   
     length 2.27268  
     axis 0 0 0  XYZ 
  end
  begin
     id 7 
     name rfemur
     direction -0.34202 -0.939693 0   
     length 7.55487   
     axis 0 0 -20   XYZ
    dof rx ry rz
    limits (-160.0 20.0)
           (-70.0 70.0)
           (-70.0 60.0)
  end
  begin
     id 8 
     name rtibia
     direction -0.34202 -0.939693 0   
     length 7.78969   
     axis 0 0 -20   XYZ
    dof rx
    limits (-10.0 170.0)
 end
 begin
     id 9 
     name rfoot
     direction -0.0859318 -0.236096 0.967923   
     length 2.19143  
     axis -90 -7.62852e-016 -20   XYZ
    dof rx rz
    limits (-45.0 90.0)
           (-20.0 70.0)
  end
  begin
     id 10 
     name rtoes
     direction -1.53538e-011 -4.21989e-011 1   
     length 1.09845   
     axis -90 -7.62852e-016 -20   XYZ
    dof rx
    limits (-90.0 20.0)
  end
  begin
     id 11 
     name lowerback
     direction -0.00762546 0.998978 -0.0445553   
     length 1.98161   
     axis 0 0 0   XYZ
    dof rx ry rz
    limits (-20.0 45.0)
           (-30.0 30.0)
           (-30.0 30.0)
  end
  begin
     id 12 
     name upperback
     direction 0.0422361 0.998867 -0.0219156   
     length 1.97558   
     axis 0 0 0   XYZ
    dof rx ry rz
    limits (-20.0 45.0)
           (-30.0 30.0)
           (-30.0 30.0)
  end
  begin
     id 13 
     name thorax
     direction 0.0442465 0.999021 7.47603e-005   
     length 1.97799   
     axis 0 0 0   XYZ
    dof rx ry rz
    limits (-20.0 45.0)
           (-30.0 30.0)
           (-30.0 30.0)
  end
  begin
     id 14 
     name lowerneck
     direction 0.00312169 0.984641 0.174564   
     length 1.78995   
     axis 0 0 0   XYZ
    dof rx ry rz
    limits (-20.0 45.0)
           (-30.0 30.0)
           (-30.0 30.0)
  end
  begin
     id 15 
     name upperneck
     direction -0.0383028 0.985255 -0.166749   
     length 1.83053   
     axis 0 0 0   XYZ
    dof rx ry rz
    limits (-20.0 45.0)
           (-30.0 30.0)
           (-30.0 30.0)
  end
  begin
     id 16
     name head
     direction -0.0129546 0.997059 -0.0755386  
     length 1.84088  
     axis 0 0 0   XYZ
    dof rx ry rz
    limits (-20.0 45.0)
           (-30.0 30.0)
           (-30.0 30.0)
  end
  begin
     id 17 
     name lclavicle
     direction 0.912857 0.370519 -0.171488  
     length 3.51279  
     axis 0 0 0   XYZ
    dof ry rz
    limits (-20.0 10.0)
           (0.0 20.0)
  end
  begin
     id 18 
     name lhumerus
     direction 1 -4.48962e-011 3.64361e-027   
     length 4.95663   
     axis 180 -30 -90   XYZ
    dof rx ry rz
    limits (-60.0 90.0)
           (-90.0 90.0)
           (-90.0 90.0)
  end
  begin
     id 19
     name lradius
     direction 1 -4.48974e-011 5.97202e-027   
     length 3.38177   
     axis 180 -30 -90   XYZ
    dof rx
    limits (-10.0 170.0)
  end
  begin
     id 20
     name lwrist
     direction 1 -4.4896e-011 9.83288e-027   
     length 1.69088   
     axis -9.31221e-015 90 90   XYZ
    dof ry
    limits (-180.0 0.0)
 end
  begin
     id 21 
     name lhand
     direction 1 -4.4902e-011 1.96551e-026   
     length 0.662909   
     axis -1.25475e-014 90 90   XYZ
    dof rx rz
    limits (-90.0 90.0)
           (-45.0 45.0)
  end
  begin
     id 22 
     name lfingers
     direction 1 -4.48971e-011 3.93277e-026   
     length 0.534454   
     axis -2.50945e-014 90 90   XYZ
    dof rx
    limits (0.0 90.0)
  end
  begin
     id 23
     name lthumb
     direction 0.707107 -6.34933e-011 0.707107   
     length 0.767373   
     axis -90 45 -4.80359e-014   XYZ
    dof rx rz
    limits (-45.0 45.0)
           (-45.0 45.0)
  end
  begin
     id 24 
     name rclavicle
     direction -0.900919 0.395364 -0.178976   
     length 3.40627  
     axis 0 0 0   XYZ 
    dof ry rz
    limits (-10.0 20.0)
           (-20.0 0.0)
  end
  begin
     id 25 
     name rhumerus
     direction -1 -4.48969e-011 1.03875e-027  
     length 5.08365   
     axis 180 30 90   XYZ
    dof rx ry rz
    limits (-90.0 60.0)
           (-90.0 90.0)
           (-90.0 90.0)
  end
  begin
     id 26 
     name rradius
     direction -1 -4.48951e-011 5.02733e-027   
     length 3.35984   
     axis 180 30 90   XYZ
    dof rx
    limits (-10.0 170.0)
  end
  begin
     id 27 
     name rwrist
     direction -1 -4.49011e-011 9.82828e-027   
     length 1.67992   
     axis -9.31221e-015 -90 -90   XYZ
    dof ry
    limits (-180.0 0.0)
  end
  begin
     id 28
     name rhand
     direction -1 -4.48894e-011 1.96774e-026   
     length 0.820764   
     axis -1.25475e-014 -90 -90   XYZ
    dof rx rz
    limits (-90.0 90.0)
           (-45.0 45.0)
  end
  begin
     id 29
     name rfingers
     direction -1 -4.49095e-011 3.92833e-026   
     length 0.661721   
     axis -2.50945e-014 -90 -90   XYZ
    dof rx
    limits (0.0 90.0)
  end
  begin
     id 30
     name rthumb
     direction -0.707107 -6.34881e-011 0.707107   
     length 0.950103   
     axis -90 -45 4.80359e-014   XYZ
    dof rx rz
    limits (-45.0 45.0)
           (-45.0 45.0)
  end
:hierarchy
  begin
    root lhipjoint rhipjoint lowerback
    lhipjoint lfemur
    lfemur ltibia
    ltibia lfoot
    lfoot ltoes
    rhipjoint rfemur
    rfemur rtibia
    rtibia rfoot
    rfoot rtoes
    lowerback upperback
    upperback thorax
    thorax lowerneck lclavicle rclavicle
    lowerneck upperneck
    upperneck head
    lclavicle lhumerus
    lhumerus lradius
    lradius lwrist
    lwrist lhand lthumb
    lhand lfingers
    rclavicle rhumerus
    rhumerus rradius
    rradius rwrist
    rwrist rhand rthumb
    rhand rfingers
  end

#!OML:ASF I:\golf\golf\golf 2\Subject 1\2002-09-07\Subject1.ASF
:FULLY-SPECIFIED
:DEGREES
110
root -6.68573 17.731 0.726957 -7.54025 69.6534 -24.4426
lowerback 3.53471 2.06969 -6.22224
upperback 4.46028 2.69457 2.56986
thorax 2.24023 1.16884 6.12153
lowerneck -14.9263 4.85394 2.81439
upperneck 36.0633 10.0675 -6.15272
head 15.7557 4.11049 -1.23644
rclavicle -3.10104e-014 -2.38542e-015
rhumerus -11.6023 1.54594 -102.167
rradius 42.506
rwrist -58.7286
rhand -31.4056 -8.23975
rfingers 7.12502
rthumb -4.67475 -38.1682
lclavicle -3.10104e-014 -2.38542e-015
lhumerus 102.711 -82.9104 -8.28401
lradius 28.6377
lwrist 39.6963
lhand 2.6046 63.5091
lfingers 7.12502
lthumb -151.917 88.5731
rfemur -35.0375 3.58764 18.7641
rtibia 28.9319
rfoot -7.52637 2.61038
rtoes 0.0260846
lfemur -24.5119 15.7958 -4.06772
ltibia 33.2839
lfoot -12.7222 11.9408
ltoes -23.9708
111
root -6.68208 17.7367 0.770243 -7.53811 68.5289 -24.4514
lowerback 3.36529 1.72364 -6.56168
upperback 4.46418 2.2361 2.59931
thorax 2.39942 0.92165 6.36586
lowerneck -14.634 5.52343 2.70327
upperneck 35.6938 11.1366 -6.39818
head 15.594 4.51304 -1.13452
rclavicle -4.17448e-014 -3.97569e-015
rhumerus -11.9092 1.95802 -102.006
rradius 43.5085
rwrist -59.2289
rhand -32.6766 -8.24664
rfingers 7.12502
rthumb -5.90194 -38.1444
lclavicle -4.17448e-014 -3.97569e-015
lhumerus 98.5941 -82.5114 -3.94
lradius 28.5182
lwrist 38.6962
lhand 3.17561 61.7367
lfingers 7.12502
lthumb -151.372 -90.4362
rfemur -34.8685 4.02825 19.3523
rtibia 28.5446
rfoot -7.41482 3.28515
rtoes 0.271464
lfemur -23.9433 16.2343 -3.49663
ltibia 33.2549
lfoot -12.6906 12.5691
ltoes -24.2334
112
root -6.67852 17.7414 0.810647 -7.39508 67.437 -24.2831
lowerback 3.23462 1.48554 -6.88374
upperback 4.46926 1.92172 2.51921
thorax 2.52403 0.749567 6.47705
lowerneck -14.3818 6.08105 2.81401
upperneck 35.3431 11.9542 -6.61864
head 15.4501 4.84539 -1.10613
rclavicle -1.15295e-014 7.15625e-015
rhumerus -12.0173 1.70018 -101.742
rradius 44.4554
rwrist -59.5916
rhand -34.0724 -7.93373
rfingers 7.12502
rthumb -7.24941 -37.7896
lclavicle -1.15295e-014 7.15625e-015
lhumerus 97.3794 -82.0954 -2.24884
lradius 28.3175
lwrist 37.4005
lhand 3.56713 60.1848
lfingers 7.12502
lthumb -150.998 -92.0519
rfemur -34.6871 4.28835 19.9195
rtibia 28.1901
rfoot -7.23032 4.18857
rtoes 1.51154
lfemur -23.3186 16.5022 -2.97474
ltibia 33.2275
lfoot -12.781 13.1945
ltoes -24.2607
113
root -6.67624 17.743 0.845158 -7.10653 66.4761 -24.0302
lowerback 3.02156 1.39785 -6.9846
upperback 4.44297 1.81894 2.18701
thorax 2.63968 0.69457 6.19051
lowerneck -14.094 6.45176 3.40312
upperneck 34.9975 12.3252 -6.792
head 15.3022 5.06278 -1.22239
rclavicle -2.8625e-014 3.97569e-015
rhumerus -12.0431 0.982845 -101.387
rradius 45.6507
rwrist -60.4521
rhand -35.5064 -7.67954
rfingers 7.12502
rthumb -8.63345 -37.483
lclavicle -2.8625e-014 3.97569e-015
lhumerus 102.817 -81.4347 -7.29206
lradius 28.2607
lwrist 36.1779
lhand 4.02434 58.9042
lfingers 7.12502
lthumb -150.561 -93.4084
rfemur -34.6094 4.29134 20.4455
rtibia 27.8759
rfoot -7.03449 5.19074
rtoes 2.99457
lfemur -22.8486 16.707 -2.5992
ltibia 33.2035
lfoot -12.6943 13.8405
ltoes -24.4522
114
root -6.67358 17.7436 0.882492 -6.88072 65.4991 -23.8578
lowerback 2.7741 1.29293 -7.04326
upperback 4.38898 1.69675 1.83832
thorax 2.74904 0.632584 5.86324
lowerneck -13.7284 6.83681 4.0234
upperneck 34.6375 12.7209 -6.98141
head 15.1415 5.2958 -1.34845
rclavicle 1.59028e-014 -1.27222e-014
rhumerus -12.1862 0.462443 -101.067
rradius 46.9374
rwrist -61.4136
rhand -36.632 -7.23519
rfingers 7.12502
rthumb -9.71961 -36.9909
lclavicle 1.59028e-014 -1.27222e-014
lhumerus 106.511 -80.7569 -10.5817
lradius 28.1959
lwrist 34.8903
lhand 5.14854 58.991
lfingers 7.12502
lthumb -149.488 -93.5156
rfemur -34.5398 4.37544 20.9836
rtibia 27.5913
rfoot -6.88785 6.00552
rtoes 4.15842
lfemur -22.3743 17.0231 -2.19864
ltibia 33.1829
lfoot -12.5037 14.3831
ltoes -24.9238
115
root -6.67144 17.7438 0.926174 -6.84653 64.4458 -23.8383
lowerback 2.53831 0.879833 -7.42912
upperback 4.43435 1.1608 1.87579
thorax 3.00953 0.339039 6.1341
lowerneck -13.5095 7.50926 3.928
upperneck 34.2158 13.8116 -7.34579
head 15.0125 5.70176 -1.29316
rclavicle -6.36111e-015 1.59028e-015
rhumerus -12.328 1.2366 -100.571
rradius 48.1042
rwrist -62.2291
rhand -37.3305 -6.55978
rfingers 7.12502
rthumb -10.3935 -36.2829
lclavicle -6.36111e-015 1.59028e-015
lhumerus 97.7665 -80.4875 -1.08438
lradius 27.7877
lwrist 32.4729
lhand 6.39983 58.746
lfingers 7.12502
lthumb -148.296 -93.9892
rfemur -34.4046 4.66283 21.5838
rtibia 27.3287
rfoot -6.7386 6.66613
rtoes 5.22867
lfemur -21.7836 17.3418 -1.64109
ltibia 33.1938
lfoot -12.411 14.8946
ltoes -25.5555
116
root -6.66848 17.7442 0.974309 -6.78144 63.3776 -23.6815
lowerback 2.41037 0.382881 -7.95409
upperback 4.51163 0.506726 1.9713
thorax 3.27289 -0.02129 6.54001
lowerneck -13.344 8.2503 3.55351
upperneck 33.7644 15.0483 -7.65526
head 14.8684 6.14381 -1.14108
rclavicle 5.725e-014 -1.27222e-014
rhumerus -12.4186 2.06191 -100.04
rradius 49.3673
rwrist -62.9859
rhand -38.1964 -6.42715
rfingers 7.12502
rthumb -11.2287 -36.1067
lclavicle 5.725e-014 -1.27222e-014
lhumerus 87.5684 -79.9009 9.85314
lradius 27.3737
lwrist 29.8167
lhand 5.87783 55.9996
lfingers 7.12502
lthumb -148.793 -96.6385
rfemur -34.1532 5.03783 22.1165
rtibia 27.0741
rfoot -6.59463 7.34503
rtoes 6.11826
lfemur -21.0658 17.5687 -1.10238
ltibia 33.2474
lfoot -12.472 15.5254
ltoes -25.7208
117
root -6.66344 17.7445 1.0232 -6.65139 62.3601 -23.4011
lowerback 2.34874 0.0956913 -8.29663
upperback 4.51565 0.131303 1.79429
thorax 3.38114 -0.222793 6.54709
lowerneck -13.0562 8.78625 3.59085
upperneck 33.3427 15.7836 -7.75985
head 14.6828 6.46124 -1.07311
rclavicle 5.08889e-014 -2.8625e-014
rhumerus -12.4492 1.4842 -99.7061
rradius 50.7146
rwrist -63.5447
rhand -39.436 -6.30634
rfingers 7.12502
rthumb -12.4241 -35.9171
lclavicle 5.08889e-014 -2.8625e-014
lhumerus 86.2232 -79.2739 11.7079
lradius 27.2409
lwrist 28.2429
lhand 4.54558 53.495
lfingers 7.12502
lthumb -150.064 -98.9062
rfemur -33.8129 5.35495 22.5883
rtibia 26.8027
rfoot -6.51767 8.06088
rtoes 6.18718
lfemur -20.3392 17.8352 -0.672819
ltibia 33.3382
lfoot -12.6115 16.1293
ltoes -25.7013
118
root -6.65798 17.742 1.0659 -6.51657 61.4147 -23.2429
lowerback 2.16637 0.0796514 -8.20486
upperback 4.39995 0.130294 1.30178
thorax 3.35829 -0.206792 5.97228
lowerneck -12.4892 9.05288 4.37531
upperneck 32.9201 15.9266 -7.87143
head 14.4598 6.63342 -1.25022
rclavicle -6.75868e-014 4.77083e-015
rhumerus -12.5333 -0.190057 -99.5188
rradius 52.1724
rwrist -63.8254
rhand -40.6937 -5.76304
rfingers 7.12502
rthumb -13.6364 -35.2964
lclavicle -6.75868e-014 4.77083e-015
lhumerus 92.0518 -78.8628 6.27629
lradius 27.3136
lwrist 27.1053
lhand 4.24298 52.5664
lfingers 7.12502
lthumb -150.352 -99.7831
rfemur -33.5836 5.48981 23.1345
rtibia 26.5109
rfoot -6.46652 8.83806
rtoes 5.4028
lfemur -19.8368 18.1431 -0.26761
ltibia 33.4801
lfoot -12.6153 16.644
ltoes -26.3179
119
root -6.6504 17.7397 1.11582 -6.95207 60.3642 -23.6602
lowerback 2.10802 -1.00147 -8.74263
upperback 4.69649 -1.30982 1.97126
thorax 3.98879 -0.99863 6.97053
lowerneck -13.1641 10.3777 2.55418
upperneck 32.3545 18.3587 -8.18989
head 14.412 7.38371 -0.616274
rclavicle 4.92986e-014 2.06736e-014
rhumerus -12.0357 2.78796 -98.7148
rradius 53.3619
rwrist -64.4705
rhand -42.0803 -4.69991
rfingers 7.12502
rthumb -14.9725 -34.1387
lclavicle 4.92986e-014 2.06736e-014
lhumerus 75.309 -76.9605 24.0617
lradius 26.5199
lwrist 24.7702
lhand 4.39664 50.9638
lfingers 7.12502
lthumb -150.206 -101.412
rfemur -33.2725 5.79498 23.9989
rtibia 26.2619
rfoot -6.42162 9.52375
rtoes 5.1981
lfemur -19.2143 18.489 0.558927
ltibia 33.6369
lfoot -12.3174 17.0809
ltoes -27.8297
120
root -6.64386 17.7358 1.17418 -8.01275 59.2829 -24.6276
lowerback 2.06904 -0.84227 -8.14924
upperback 4.47432 -1.09642 1.54718
thorax 3.70066 -0.841493 6.18488
lowerneck -12.1346 10.5284 3.85411
upperneck 32.1057 18.2383 -8.29847
head 14.2159 7.52547 -0.946309
rclavicle -5.48646e-014 0
rhumerus -12.492 0.471878 -98.5985
rradius 55.0221
rwrist -64.4
rhand -43.3999 -3.70611
rfingers 7.12502
rthumb -16.2435 -33.0457
lclavicle -5.48646e-014 0
lhumerus 84.8144 -77.1977 14.8198
lradius 26.7169
lwrist 24.2485
lhand 4.2891 49.1299
lfingers 7.12502
lthumb -150.308 -103.227
rfemur -32.7835 6.29958 25.1364
rtibia 26.0772
rfoot -6.35808 10.094
rtoes 6.12087
lfemur -18.3809 18.8589 1.8232
ltibia 33.7876
lfoot -11.8609 17.3546
ltoes -29.2374
